<?xml version="1.0" encoding="us-ascii" standalone="no"?><svg xmlns="http://www.w3.org/2000/svg" xmlns:xlink="http://www.w3.org/1999/xlink" contentStyleType="text/css" height="825px" preserveAspectRatio="none" style="width:197px;height:825px;background:#FFFFFF;" version="1.1" viewBox="0 0 197 825" width="197px" zoomAndPan="magnify"><defs/><g><!--class Builder--><g id="elem_Builder"><rect codeLine="14" fill="#F1F1F1" height="171.2656" id="Builder" rx="2.5" ry="2.5" style="stroke:#181818;stroke-width:0.5;" width="112" x="42.5" y="185"/><ellipse cx="73.7" cy="201" fill="#B4A7E5" rx="11" ry="11" style="stroke:#181818;stroke-width:1.0;"/><path d="M74.6531,197.6406 L74.6531,204.2969 L76.3719,204.2969 Q76.9813,204.2969 77.2469,204.5313 Q77.5125,204.7656 77.5125,205.1563 Q77.5125,205.5313 77.2469,205.7656 Q76.9813,206 76.3719,206 L71.2313,206 Q70.6219,206 70.3563,205.7656 Q70.0906,205.5313 70.0906,205.1406 Q70.0906,204.7656 70.3563,204.5313 Q70.6219,204.2969 71.2313,204.2969 L72.95,204.2969 L72.95,197.6406 L71.2313,197.6406 Q70.6219,197.6406 70.3563,197.4063 Q70.0906,197.1719 70.0906,196.7813 Q70.0906,196.4063 70.3563,196.1719 Q70.6219,195.9375 71.2313,195.9375 L76.3719,195.9375 Q76.9813,195.9375 77.2469,196.1719 Q77.5125,196.4063 77.5125,196.7813 Q77.5125,197.1719 77.2469,197.4063 Q76.9813,197.6406 76.3719,197.6406 L74.6531,197.6406 Z " fill="#000000"/><text fill="#000000" font-family="sans-serif" font-size="14" font-style="italic" lengthAdjust="spacing" textLength="44" x="91.3" y="206.7285">Builder</text><line style="stroke:#181818;stroke-width:0.5;" x1="43.5" x2="153.5" y1="217" y2="217"/><line style="stroke:#181818;stroke-width:0.5;" x1="43.5" x2="153.5" y1="225" y2="225"/><text fill="#000000" font-family="sans-serif" font-size="14" lengthAdjust="spacing" textLength="61" x="48.5" y="243.5332">setType()</text><text fill="#000000" font-family="sans-serif" font-size="14" lengthAdjust="spacing" textLength="65" x="48.5" y="261.1426">setName()</text><text fill="#000000" font-family="sans-serif" font-size="14" lengthAdjust="spacing" textLength="100" x="48.5" y="278.752">setDescription()</text><text fill="#000000" font-family="sans-serif" font-size="14" lengthAdjust="spacing" textLength="61" x="48.5" y="296.3613">setPrice()</text><text fill="#000000" font-family="sans-serif" font-size="14" lengthAdjust="spacing" textLength="90" x="48.5" y="313.9707">setCountries()</text><text fill="#000000" font-family="sans-serif" font-size="14" lengthAdjust="spacing" textLength="59" x="48.5" y="331.5801">setAlias()</text><text fill="#000000" font-family="sans-serif" font-size="14" lengthAdjust="spacing" textLength="97" x="48.5" y="349.1895">build(): Product</text></g><!--class ConcreteProductBuilder--><g id="elem_ConcreteProductBuilder"><rect codeLine="24" fill="#F1F1F1" height="188.875" id="ConcreteProductBuilder" rx="2.5" ry="2.5" style="stroke:#181818;stroke-width:0.5;" width="183" x="7" y="416"/><ellipse cx="22" cy="432" fill="#ADD1B2" rx="11" ry="11" style="stroke:#181818;stroke-width:1.0;"/><path d="M24.7656,427.875 Q24.9219,427.6563 25.1094,427.5469 Q25.2969,427.4375 25.5156,427.4375 Q25.8906,427.4375 26.125,427.7031 Q26.3594,427.9531 26.3594,428.5625 L26.3594,430.0156 Q26.3594,430.625 26.125,430.8906 Q25.8906,431.1563 25.5156,431.1563 Q25.1719,431.1563 24.9688,430.9531 Q24.7656,430.7656 24.6563,430.25 Q24.6094,429.8906 24.4219,429.7031 Q24.0938,429.3281 23.4844,429.1094 Q22.875,428.8906 22.25,428.8906 Q21.4844,428.8906 20.8438,429.2188 Q20.2188,429.5469 19.7188,430.2969 Q19.2344,431.0469 19.2344,432.0781 L19.2344,433.1719 Q19.2344,434.4063 20.125,435.2344 Q21.0156,436.0469 22.6094,436.0469 Q23.5469,436.0469 24.2031,435.7969 Q24.5938,435.6406 25.0156,435.2031 Q25.2813,434.9375 25.4219,434.8594 Q25.5781,434.7813 25.7813,434.7813 Q26.1094,434.7813 26.3594,435.0469 Q26.625,435.2969 26.625,435.6406 Q26.625,435.9844 26.2813,436.3906 Q25.7813,436.9688 24.9844,437.2969 Q23.9063,437.75 22.6094,437.75 Q21.0938,437.75 19.8906,437.125 Q18.9063,436.625 18.2188,435.5625 Q17.5313,434.4844 17.5313,433.2031 L17.5313,432.0469 Q17.5313,430.7188 18.1406,429.5781 Q18.7656,428.4219 19.8594,427.8125 Q20.9531,427.1875 22.1875,427.1875 Q22.9219,427.1875 23.5625,427.3594 Q24.2188,427.5156 24.7656,427.875 Z " fill="#000000"/><text fill="#000000" font-family="sans-serif" font-size="14" lengthAdjust="spacing" textLength="151" x="36" y="437.7285">ConcreteProductBuilder</text><line style="stroke:#181818;stroke-width:0.5;" x1="8" x2="189" y1="448" y2="448"/><text fill="#000000" font-family="sans-serif" font-size="14" lengthAdjust="spacing" textLength="105" x="13" y="466.5332">product: Product</text><line style="stroke:#181818;stroke-width:0.5;" x1="8" x2="189" y1="473.6094" y2="473.6094"/><text fill="#000000" font-family="sans-serif" font-size="14" lengthAdjust="spacing" textLength="61" x="13" y="492.1426">setType()</text><text fill="#000000" font-family="sans-serif" font-size="14" lengthAdjust="spacing" textLength="65" x="13" y="509.752">setName()</text><text fill="#000000" font-family="sans-serif" font-size="14" lengthAdjust="spacing" textLength="100" x="13" y="527.3613">setDescription()</text><text fill="#000000" font-family="sans-serif" font-size="14" lengthAdjust="spacing" textLength="61" x="13" y="544.9707">setPrice()</text><text fill="#000000" font-family="sans-serif" font-size="14" lengthAdjust="spacing" textLength="90" x="13" y="562.5801">setCountries()</text><text fill="#000000" font-family="sans-serif" font-size="14" lengthAdjust="spacing" textLength="59" x="13" y="580.1895">setAlias()</text><text fill="#000000" font-family="sans-serif" font-size="14" lengthAdjust="spacing" textLength="97" x="13" y="597.7988">build(): Product</text></g><!--class Product--><g id="elem_Product"><rect codeLine="5" fill="#F1F1F1" height="153.6563" id="Product" rx="2.5" ry="2.5" style="stroke:#181818;stroke-width:0.5;" width="105" x="46" y="665"/><ellipse cx="71.8" cy="681" fill="#ADD1B2" rx="11" ry="11" style="stroke:#181818;stroke-width:1.0;"/><path d="M74.5656,676.875 Q74.7219,676.6563 74.9094,676.5469 Q75.0969,676.4375 75.3156,676.4375 Q75.6906,676.4375 75.925,676.7031 Q76.1594,676.9531 76.1594,677.5625 L76.1594,679.0156 Q76.1594,679.625 75.925,679.8906 Q75.6906,680.1563 75.3156,680.1563 Q74.9719,680.1563 74.7688,679.9531 Q74.5656,679.7656 74.4563,679.25 Q74.4094,678.8906 74.2219,678.7031 Q73.8938,678.3281 73.2844,678.1094 Q72.675,677.8906 72.05,677.8906 Q71.2844,677.8906 70.6438,678.2188 Q70.0188,678.5469 69.5188,679.2969 Q69.0344,680.0469 69.0344,681.0781 L69.0344,682.1719 Q69.0344,683.4063 69.925,684.2344 Q70.8156,685.0469 72.4094,685.0469 Q73.3469,685.0469 74.0031,684.7969 Q74.3938,684.6406 74.8156,684.2031 Q75.0813,683.9375 75.2219,683.8594 Q75.3781,683.7813 75.5813,683.7813 Q75.9094,683.7813 76.1594,684.0469 Q76.425,684.2969 76.425,684.6406 Q76.425,684.9844 76.0813,685.3906 Q75.5813,685.9688 74.7844,686.2969 Q73.7063,686.75 72.4094,686.75 Q70.8938,686.75 69.6906,686.125 Q68.7063,685.625 68.0188,684.5625 Q67.3313,683.4844 67.3313,682.2031 L67.3313,681.0469 Q67.3313,679.7188 67.9406,678.5781 Q68.5656,677.4219 69.6594,676.8125 Q70.7531,676.1875 71.9875,676.1875 Q72.7219,676.1875 73.3625,676.3594 Q74.0188,676.5156 74.5656,676.875 Z " fill="#000000"/><text fill="#000000" font-family="sans-serif" font-size="14" lengthAdjust="spacing" textLength="49" x="88.2" y="686.7285">Product</text><line style="stroke:#181818;stroke-width:0.5;" x1="47" x2="150" y1="697" y2="697"/><text fill="#000000" font-family="sans-serif" font-size="14" lengthAdjust="spacing" textLength="50" x="52" y="715.5332">type: int</text><text fill="#000000" font-family="sans-serif" font-size="14" lengthAdjust="spacing" textLength="59" x="52" y="733.1426">name: str</text><text fill="#000000" font-family="sans-serif" font-size="14" lengthAdjust="spacing" textLength="93" x="52" y="750.752">description: str</text><text fill="#000000" font-family="sans-serif" font-size="14" lengthAdjust="spacing" textLength="66" x="52" y="768.3613">price: float</text><text fill="#000000" font-family="sans-serif" font-size="14" lengthAdjust="spacing" textLength="83" x="52" y="785.9707">countries: list</text><text fill="#000000" font-family="sans-serif" font-size="14" lengthAdjust="spacing" textLength="53" x="52" y="803.5801">alias: str</text><line style="stroke:#181818;stroke-width:0.5;" x1="47" x2="150" y1="810.6563" y2="810.6563"/></g><!--class Director--><g id="elem_Director"><rect codeLine="35" fill="#F1F1F1" height="118.4375" id="Director" rx="2.5" ry="2.5" style="stroke:#181818;stroke-width:0.5;" width="156" x="20.5" y="7"/><ellipse cx="69.25" cy="23" fill="#ADD1B2" rx="11" ry="11" style="stroke:#181818;stroke-width:1.0;"/><path d="M72.0156,18.875 Q72.1719,18.6563 72.3594,18.5469 Q72.5469,18.4375 72.7656,18.4375 Q73.1406,18.4375 73.375,18.7031 Q73.6094,18.9531 73.6094,19.5625 L73.6094,21.0156 Q73.6094,21.625 73.375,21.8906 Q73.1406,22.1563 72.7656,22.1563 Q72.4219,22.1563 72.2188,21.9531 Q72.0156,21.7656 71.9063,21.25 Q71.8594,20.8906 71.6719,20.7031 Q71.3438,20.3281 70.7344,20.1094 Q70.125,19.8906 69.5,19.8906 Q68.7344,19.8906 68.0938,20.2188 Q67.4688,20.5469 66.9688,21.2969 Q66.4844,22.0469 66.4844,23.0781 L66.4844,24.1719 Q66.4844,25.4063 67.375,26.2344 Q68.2656,27.0469 69.8594,27.0469 Q70.7969,27.0469 71.4531,26.7969 Q71.8438,26.6406 72.2656,26.2031 Q72.5313,25.9375 72.6719,25.8594 Q72.8281,25.7813 73.0313,25.7813 Q73.3594,25.7813 73.6094,26.0469 Q73.875,26.2969 73.875,26.6406 Q73.875,26.9844 73.5313,27.3906 Q73.0313,27.9688 72.2344,28.2969 Q71.1563,28.75 69.8594,28.75 Q68.3438,28.75 67.1406,28.125 Q66.1563,27.625 65.4688,26.5625 Q64.7813,25.4844 64.7813,24.2031 L64.7813,23.0469 Q64.7813,21.7188 65.3906,20.5781 Q66.0156,19.4219 67.1094,18.8125 Q68.2031,18.1875 69.4375,18.1875 Q70.1719,18.1875 70.8125,18.3594 Q71.4688,18.5156 72.0156,18.875 Z " fill="#000000"/><text fill="#000000" font-family="sans-serif" font-size="14" lengthAdjust="spacing" textLength="50" x="89.75" y="28.7285">Director</text><line style="stroke:#181818;stroke-width:0.5;" x1="21.5" x2="175.5" y1="39" y2="39"/><text fill="#000000" font-family="sans-serif" font-size="14" lengthAdjust="spacing" textLength="95" x="26.5" y="57.5332">builder: Builder</text><line style="stroke:#181818;stroke-width:0.5;" x1="21.5" x2="175.5" y1="64.6094" y2="64.6094"/><text fill="#000000" font-family="sans-serif" font-size="14" lengthAdjust="spacing" textLength="103" x="26.5" y="83.1426">Director(builder)</text><text fill="#000000" font-family="sans-serif" font-size="14" lengthAdjust="spacing" textLength="144" x="26.5" y="100.752">changeBuilder(builder)</text><text fill="#000000" font-family="sans-serif" font-size="14" lengthAdjust="spacing" textLength="71" x="26.5" y="118.3613">make(type)</text></g><!--reverse link Builder to ConcreteProductBuilder--><g id="link_Builder_ConcreteProductBuilder"><path codeLine="1" d="M98.5,376.44 C98.5,389.57 98.5,402.94 98.5,415.89 " fill="none" id="Builder-backto-ConcreteProductBuilder" style="stroke:#181818;stroke-width:1.0;stroke-dasharray:7.0,7.0;"/><polygon fill="none" points="91.5,376.08,98.5,356.08,105.5,376.08,91.5,376.08" style="stroke:#181818;stroke-width:1.0;"/></g><!--link ConcreteProductBuilder to Product--><g id="link_ConcreteProductBuilder_Product"><path codeLine="2" d="M98.5,605.18 C98.5,623.15 98.5,641.84 98.5,659.39 " fill="none" id="ConcreteProductBuilder-to-Product" style="stroke:#181818;stroke-width:1.0;"/><polygon fill="#181818" points="98.5,664.8,102.5,655.8,98.5,659.8,94.5,655.8,98.5,664.8" style="stroke:#181818;stroke-width:1.0;"/></g><!--link Director to Builder--><g id="link_Director_Builder"><path codeLine="3" d="M98.5,125.03 C98.5,142.01 98.5,161 98.5,179.48 " fill="none" id="Director-to-Builder" style="stroke:#181818;stroke-width:1.0;"/><polygon fill="#181818" points="98.5,184.67,102.5,175.67,98.5,179.67,94.5,175.67,98.5,184.67" style="stroke:#181818;stroke-width:1.0;"/></g><!--SRC=[lP4nRiCm34LtdOAZFIG7C8e2JJ8N6Ne1bMPQeefaKFHGkBbx9TjqEhHhjw__l_HCyp1ow4dWuMk_XsEAAAHqbjIFg8SbSx_RiDizmcgv4mkXfiMqUmw3pzawC3a0_Hoe0uvQTFJNehDAqJrb51wKKpHh4CQINqBojOrfZ2fCkOF0kJe-iCzB- -PSUPFauf4CNt6PzAKGctRHpuLe-dGdcdMkH3iSZMV6KyNDXzSAQDfkc_vce_xnfwPvdDcwN_h_hzkMD5cDfDks1LlUh5bz3TzzVAErypEu-WzgwZhR0lW6]--></g></svg>