<?xml version="1.0" encoding="us-ascii" standalone="no"?><svg xmlns="http://www.w3.org/2000/svg" xmlns:xlink="http://www.w3.org/1999/xlink" contentStyleType="text/css" height="365px" preserveAspectRatio="none" style="width:637px;height:365px;background:#FFFFFF;" version="1.1" viewBox="0 0 637 365" width="637px" zoomAndPan="magnify"><defs/><g><!--class Product--><g id="elem_Product"><rect codeLine="7" fill="#F1F1F1" height="65.6094" id="Product" rx="2.5" ry="2.5" style="stroke:#181818;stroke-width:0.5;" width="103" x="120.5" y="158.5"/><ellipse cx="145.4" cy="174.5" fill="#B4A7E5" rx="11" ry="11" style="stroke:#181818;stroke-width:1.0;"/><path d="M146.3531,171.1406 L146.3531,177.7969 L148.0719,177.7969 Q148.6813,177.7969 148.9469,178.0313 Q149.2125,178.2656 149.2125,178.6563 Q149.2125,179.0313 148.9469,179.2656 Q148.6813,179.5 148.0719,179.5 L142.9313,179.5 Q142.3219,179.5 142.0563,179.2656 Q141.7906,179.0313 141.7906,178.6406 Q141.7906,178.2656 142.0563,178.0313 Q142.3219,177.7969 142.9313,177.7969 L144.65,177.7969 L144.65,171.1406 L142.9313,171.1406 Q142.3219,171.1406 142.0563,170.9063 Q141.7906,170.6719 141.7906,170.2813 Q141.7906,169.9063 142.0563,169.6719 Q142.3219,169.4375 142.9313,169.4375 L148.0719,169.4375 Q148.6813,169.4375 148.9469,169.6719 Q149.2125,169.9063 149.2125,170.2813 Q149.2125,170.6719 148.9469,170.9063 Q148.6813,171.1406 148.0719,171.1406 L146.3531,171.1406 Z " fill="#000000"/><text fill="#000000" font-family="sans-serif" font-size="14" font-style="italic" lengthAdjust="spacing" textLength="49" x="161.6" y="180.2285">Product</text><line style="stroke:#181818;stroke-width:0.5;" x1="121.5" x2="222.5" y1="190.5" y2="190.5"/><line style="stroke:#181818;stroke-width:0.5;" x1="121.5" x2="222.5" y1="198.5" y2="198.5"/><text fill="#000000" font-family="sans-serif" font-size="14" lengthAdjust="spacing" textLength="91" x="126.5" y="217.0332">doStuff(): Void</text></g><!--class ConcreteProductA--><g id="elem_ConcreteProductA"><rect codeLine="26" fill="#F1F1F1" height="65.6094" id="ConcreteProductA" rx="2.5" ry="2.5" style="stroke:#181818;stroke-width:0.5;" width="148" x="7" y="293"/><ellipse cx="22" cy="309" fill="#ADD1B2" rx="11" ry="11" style="stroke:#181818;stroke-width:1.0;"/><path d="M24.7656,304.875 Q24.9219,304.6563 25.1094,304.5469 Q25.2969,304.4375 25.5156,304.4375 Q25.8906,304.4375 26.125,304.7031 Q26.3594,304.9531 26.3594,305.5625 L26.3594,307.0156 Q26.3594,307.625 26.125,307.8906 Q25.8906,308.1563 25.5156,308.1563 Q25.1719,308.1563 24.9688,307.9531 Q24.7656,307.7656 24.6563,307.25 Q24.6094,306.8906 24.4219,306.7031 Q24.0938,306.3281 23.4844,306.1094 Q22.875,305.8906 22.25,305.8906 Q21.4844,305.8906 20.8438,306.2188 Q20.2188,306.5469 19.7188,307.2969 Q19.2344,308.0469 19.2344,309.0781 L19.2344,310.1719 Q19.2344,311.4063 20.125,312.2344 Q21.0156,313.0469 22.6094,313.0469 Q23.5469,313.0469 24.2031,312.7969 Q24.5938,312.6406 25.0156,312.2031 Q25.2813,311.9375 25.4219,311.8594 Q25.5781,311.7813 25.7813,311.7813 Q26.1094,311.7813 26.3594,312.0469 Q26.625,312.2969 26.625,312.6406 Q26.625,312.9844 26.2813,313.3906 Q25.7813,313.9688 24.9844,314.2969 Q23.9063,314.75 22.6094,314.75 Q21.0938,314.75 19.8906,314.125 Q18.9063,313.625 18.2188,312.5625 Q17.5313,311.4844 17.5313,310.2031 L17.5313,309.0469 Q17.5313,307.7188 18.1406,306.5781 Q18.7656,305.4219 19.8594,304.8125 Q20.9531,304.1875 22.1875,304.1875 Q22.9219,304.1875 23.5625,304.3594 Q24.2188,304.5156 24.7656,304.875 Z " fill="#000000"/><text fill="#000000" font-family="sans-serif" font-size="14" lengthAdjust="spacing" textLength="116" x="36" y="314.7285">ConcreteProductA</text><line style="stroke:#181818;stroke-width:0.5;" x1="8" x2="154" y1="325" y2="325"/><line style="stroke:#181818;stroke-width:0.5;" x1="8" x2="154" y1="333" y2="333"/><text fill="#000000" font-family="sans-serif" font-size="14" lengthAdjust="spacing" textLength="91" x="13" y="351.5332">doStuff(): Void</text></g><!--class ConcreteProductB--><g id="elem_ConcreteProductB"><rect codeLine="30" fill="#F1F1F1" height="65.6094" id="ConcreteProductB" rx="2.5" ry="2.5" style="stroke:#181818;stroke-width:0.5;" width="148" x="190" y="293"/><ellipse cx="205" cy="309" fill="#ADD1B2" rx="11" ry="11" style="stroke:#181818;stroke-width:1.0;"/><path d="M207.7656,304.875 Q207.9219,304.6563 208.1094,304.5469 Q208.2969,304.4375 208.5156,304.4375 Q208.8906,304.4375 209.125,304.7031 Q209.3594,304.9531 209.3594,305.5625 L209.3594,307.0156 Q209.3594,307.625 209.125,307.8906 Q208.8906,308.1563 208.5156,308.1563 Q208.1719,308.1563 207.9688,307.9531 Q207.7656,307.7656 207.6563,307.25 Q207.6094,306.8906 207.4219,306.7031 Q207.0938,306.3281 206.4844,306.1094 Q205.875,305.8906 205.25,305.8906 Q204.4844,305.8906 203.8438,306.2188 Q203.2188,306.5469 202.7188,307.2969 Q202.2344,308.0469 202.2344,309.0781 L202.2344,310.1719 Q202.2344,311.4063 203.125,312.2344 Q204.0156,313.0469 205.6094,313.0469 Q206.5469,313.0469 207.2031,312.7969 Q207.5938,312.6406 208.0156,312.2031 Q208.2813,311.9375 208.4219,311.8594 Q208.5781,311.7813 208.7813,311.7813 Q209.1094,311.7813 209.3594,312.0469 Q209.625,312.2969 209.625,312.6406 Q209.625,312.9844 209.2813,313.3906 Q208.7813,313.9688 207.9844,314.2969 Q206.9063,314.75 205.6094,314.75 Q204.0938,314.75 202.8906,314.125 Q201.9063,313.625 201.2188,312.5625 Q200.5313,311.4844 200.5313,310.2031 L200.5313,309.0469 Q200.5313,307.7188 201.1406,306.5781 Q201.7656,305.4219 202.8594,304.8125 Q203.9531,304.1875 205.1875,304.1875 Q205.9219,304.1875 206.5625,304.3594 Q207.2188,304.5156 207.7656,304.875 Z " fill="#000000"/><text fill="#000000" font-family="sans-serif" font-size="14" lengthAdjust="spacing" textLength="116" x="219" y="314.7285">ConcreteProductB</text><line style="stroke:#181818;stroke-width:0.5;" x1="191" x2="337" y1="325" y2="325"/><line style="stroke:#181818;stroke-width:0.5;" x1="191" x2="337" y1="333" y2="333"/><text fill="#000000" font-family="sans-serif" font-size="14" lengthAdjust="spacing" textLength="91" x="196" y="351.5332">doStuff(): Void</text></g><!--class Creator--><g id="elem_Creator"><rect codeLine="11" fill="#F1F1F1" height="83.2188" id="Creator" rx="2.5" ry="2.5" style="stroke:#181818;stroke-width:0.5;" width="168" x="259" y="7"/><ellipse cx="314.75" cy="23" fill="#ADD1B2" rx="11" ry="11" style="stroke:#181818;stroke-width:1.0;"/><path d="M317.5156,18.875 Q317.6719,18.6563 317.8594,18.5469 Q318.0469,18.4375 318.2656,18.4375 Q318.6406,18.4375 318.875,18.7031 Q319.1094,18.9531 319.1094,19.5625 L319.1094,21.0156 Q319.1094,21.625 318.875,21.8906 Q318.6406,22.1563 318.2656,22.1563 Q317.9219,22.1563 317.7188,21.9531 Q317.5156,21.7656 317.4063,21.25 Q317.3594,20.8906 317.1719,20.7031 Q316.8438,20.3281 316.2344,20.1094 Q315.625,19.8906 315,19.8906 Q314.2344,19.8906 313.5938,20.2188 Q312.9688,20.5469 312.4688,21.2969 Q311.9844,22.0469 311.9844,23.0781 L311.9844,24.1719 Q311.9844,25.4063 312.875,26.2344 Q313.7656,27.0469 315.3594,27.0469 Q316.2969,27.0469 316.9531,26.7969 Q317.3438,26.6406 317.7656,26.2031 Q318.0313,25.9375 318.1719,25.8594 Q318.3281,25.7813 318.5313,25.7813 Q318.8594,25.7813 319.1094,26.0469 Q319.375,26.2969 319.375,26.6406 Q319.375,26.9844 319.0313,27.3906 Q318.5313,27.9688 317.7344,28.2969 Q316.6563,28.75 315.3594,28.75 Q313.8438,28.75 312.6406,28.125 Q311.6563,27.625 310.9688,26.5625 Q310.2813,25.4844 310.2813,24.2031 L310.2813,23.0469 Q310.2813,21.7188 310.8906,20.5781 Q311.5156,19.4219 312.6094,18.8125 Q313.7031,18.1875 314.9375,18.1875 Q315.6719,18.1875 316.3125,18.3594 Q316.9688,18.5156 317.5156,18.875 Z " fill="#000000"/><text fill="#000000" font-family="sans-serif" font-size="14" lengthAdjust="spacing" textLength="48" x="335.25" y="28.7285">Creator</text><line style="stroke:#181818;stroke-width:0.5;" x1="260" x2="426" y1="39" y2="39"/><line style="stroke:#181818;stroke-width:0.5;" x1="260" x2="426" y1="47" y2="47"/><text fill="#000000" font-family="sans-serif" font-size="14" lengthAdjust="spacing" textLength="143" x="265" y="65.5332">someOperation(): Void</text><text fill="#000000" font-family="sans-serif" font-size="14" lengthAdjust="spacing" textLength="156" x="265" y="83.1426">createProduct(): Product</text></g><!--class ConcreteCreatorA--><g id="elem_ConcreteCreatorA"><rect codeLine="16" fill="#F1F1F1" height="83.2188" id="ConcreteCreatorA" rx="2.5" ry="2.5" style="stroke:#181818;stroke-width:0.5;" width="168" x="259" y="150"/><ellipse cx="283.45" cy="166" fill="#ADD1B2" rx="11" ry="11" style="stroke:#181818;stroke-width:1.0;"/><path d="M286.2156,161.875 Q286.3719,161.6563 286.5594,161.5469 Q286.7469,161.4375 286.9656,161.4375 Q287.3406,161.4375 287.575,161.7031 Q287.8094,161.9531 287.8094,162.5625 L287.8094,164.0156 Q287.8094,164.625 287.575,164.8906 Q287.3406,165.1563 286.9656,165.1563 Q286.6219,165.1563 286.4188,164.9531 Q286.2156,164.7656 286.1063,164.25 Q286.0594,163.8906 285.8719,163.7031 Q285.5438,163.3281 284.9344,163.1094 Q284.325,162.8906 283.7,162.8906 Q282.9344,162.8906 282.2938,163.2188 Q281.6688,163.5469 281.1688,164.2969 Q280.6844,165.0469 280.6844,166.0781 L280.6844,167.1719 Q280.6844,168.4063 281.575,169.2344 Q282.4656,170.0469 284.0594,170.0469 Q284.9969,170.0469 285.6531,169.7969 Q286.0438,169.6406 286.4656,169.2031 Q286.7313,168.9375 286.8719,168.8594 Q287.0281,168.7813 287.2313,168.7813 Q287.5594,168.7813 287.8094,169.0469 Q288.075,169.2969 288.075,169.6406 Q288.075,169.9844 287.7313,170.3906 Q287.2313,170.9688 286.4344,171.2969 Q285.3563,171.75 284.0594,171.75 Q282.5438,171.75 281.3406,171.125 Q280.3563,170.625 279.6688,169.5625 Q278.9813,168.4844 278.9813,167.2031 L278.9813,166.0469 Q278.9813,164.7188 279.5906,163.5781 Q280.2156,162.4219 281.3094,161.8125 Q282.4031,161.1875 283.6375,161.1875 Q284.3719,161.1875 285.0125,161.3594 Q285.6688,161.5156 286.2156,161.875 Z " fill="#000000"/><text fill="#000000" font-family="sans-serif" font-size="14" lengthAdjust="spacing" textLength="115" x="299.55" y="171.7285">ConcreteCreatorA</text><line style="stroke:#181818;stroke-width:0.5;" x1="260" x2="426" y1="182" y2="182"/><line style="stroke:#181818;stroke-width:0.5;" x1="260" x2="426" y1="190" y2="190"/><text fill="#000000" font-family="sans-serif" font-size="14" lengthAdjust="spacing" textLength="143" x="265" y="208.5332">someOperation(): Void</text><text fill="#000000" font-family="sans-serif" font-size="14" lengthAdjust="spacing" textLength="156" x="265" y="226.1426">createProduct(): Product</text></g><!--class ConcreteCreatorB--><g id="elem_ConcreteCreatorB"><rect codeLine="21" fill="#F1F1F1" height="83.2188" id="ConcreteCreatorB" rx="2.5" ry="2.5" style="stroke:#181818;stroke-width:0.5;" width="168" x="462" y="150"/><ellipse cx="486.45" cy="166" fill="#ADD1B2" rx="11" ry="11" style="stroke:#181818;stroke-width:1.0;"/><path d="M489.2156,161.875 Q489.3719,161.6563 489.5594,161.5469 Q489.7469,161.4375 489.9656,161.4375 Q490.3406,161.4375 490.575,161.7031 Q490.8094,161.9531 490.8094,162.5625 L490.8094,164.0156 Q490.8094,164.625 490.575,164.8906 Q490.3406,165.1563 489.9656,165.1563 Q489.6219,165.1563 489.4188,164.9531 Q489.2156,164.7656 489.1063,164.25 Q489.0594,163.8906 488.8719,163.7031 Q488.5438,163.3281 487.9344,163.1094 Q487.325,162.8906 486.7,162.8906 Q485.9344,162.8906 485.2938,163.2188 Q484.6688,163.5469 484.1688,164.2969 Q483.6844,165.0469 483.6844,166.0781 L483.6844,167.1719 Q483.6844,168.4063 484.575,169.2344 Q485.4656,170.0469 487.0594,170.0469 Q487.9969,170.0469 488.6531,169.7969 Q489.0438,169.6406 489.4656,169.2031 Q489.7313,168.9375 489.8719,168.8594 Q490.0281,168.7813 490.2313,168.7813 Q490.5594,168.7813 490.8094,169.0469 Q491.075,169.2969 491.075,169.6406 Q491.075,169.9844 490.7313,170.3906 Q490.2313,170.9688 489.4344,171.2969 Q488.3563,171.75 487.0594,171.75 Q485.5438,171.75 484.3406,171.125 Q483.3563,170.625 482.6688,169.5625 Q481.9813,168.4844 481.9813,167.2031 L481.9813,166.0469 Q481.9813,164.7188 482.5906,163.5781 Q483.2156,162.4219 484.3094,161.8125 Q485.4031,161.1875 486.6375,161.1875 Q487.3719,161.1875 488.0125,161.3594 Q488.6688,161.5156 489.2156,161.875 Z " fill="#000000"/><text fill="#000000" font-family="sans-serif" font-size="14" lengthAdjust="spacing" textLength="115" x="502.55" y="171.7285">ConcreteCreatorB</text><line style="stroke:#181818;stroke-width:0.5;" x1="463" x2="629" y1="182" y2="182"/><line style="stroke:#181818;stroke-width:0.5;" x1="463" x2="629" y1="190" y2="190"/><text fill="#000000" font-family="sans-serif" font-size="14" lengthAdjust="spacing" textLength="143" x="468" y="208.5332">someOperation(): Void</text><text fill="#000000" font-family="sans-serif" font-size="14" lengthAdjust="spacing" textLength="156" x="468" y="226.1426">createProduct(): Product</text></g><!--reverse link Product to ConcreteProductA--><g id="link_Product_ConcreteProductA"><path codeLine="1" d="M138.48,241.31 C126.69,258.47 113.75,277.31 103.14,292.76 " fill="none" id="Product-backto-ConcreteProductA" style="stroke:#181818;stroke-width:1.0;stroke-dasharray:7.0,7.0;"/><polygon fill="none" points="132.88,237.1,149.97,224.57,144.42,245.02,132.88,237.1" style="stroke:#181818;stroke-width:1.0;"/></g><!--reverse link Product to ConcreteProductB--><g id="link_Product_ConcreteProductB"><path codeLine="2" d="M205.7,241.04 C217.67,258.27 230.83,277.23 241.62,292.76 " fill="none" id="Product-backto-ConcreteProductB" style="stroke:#181818;stroke-width:1.0;stroke-dasharray:7.0,7.0;"/><polygon fill="none" points="199.93,245,194.27,224.57,211.43,237.01,199.93,245" style="stroke:#181818;stroke-width:1.0;"/></g><!--link Creator to Product--><g id="link_Creator_Product"><path codeLine="3" d="M293.54,90.28 C268.74,110.73 238.98,135.27 215.12,154.95 " fill="none" id="Creator-to-Product" style="stroke:#181818;stroke-width:1.0;"/><polygon fill="#181818" points="211.04,158.31,220.5264,155.6628,214.8951,155.126,215.432,149.4946,211.04,158.31" style="stroke:#181818;stroke-width:1.0;"/></g><!--reverse link Creator to ConcreteCreatorA--><g id="link_Creator_ConcreteCreatorA"><path codeLine="4" d="M343,110.51 C343,123.79 343,137.54 343,149.81 " fill="none" id="Creator-backto-ConcreteCreatorA" style="stroke:#181818;stroke-width:1.0;"/><polygon fill="none" points="336,110.28,343,90.28,350,110.28,336,110.28" style="stroke:#181818;stroke-width:1.0;"/></g><!--reverse link Creator to ConcreteCreatorB--><g id="link_Creator_ConcreteCreatorB"><path codeLine="5" d="M418.13,101.69 C441.08,117.62 465.96,134.9 487.62,149.95 " fill="none" id="Creator-backto-ConcreteCreatorB" style="stroke:#181818;stroke-width:1.0;"/><polygon fill="none" points="413.88,107.25,401.44,90.09,421.86,95.75,413.88,107.25" style="stroke:#181818;stroke-width:1.0;"/></g><!--SRC=[hP512i8m44NtSufPwY8zW1IXwG4i2Ev3Ce60PYH9Lwrtbs0JeM3TTFlcp-CpCmGseqxOpas3FNiTAD7mWHqC6rC9VI2LEA0GPrnWPUqiHDrOOBSvbG3E9mfMQIewd03Hy3MDrXwE9xonC_02q7SL8nPR3aL-qEL9GIN7laOHTSwKofcNeb_BgkI-EhcJhhpapqLMB_gHVWC0]--></g></svg>