<?xml version="1.0" encoding="us-ascii" standalone="no"?><svg xmlns="http://www.w3.org/2000/svg" xmlns:xlink="http://www.w3.org/1999/xlink" contentStyleType="text/css" height="275px" preserveAspectRatio="none" style="width:369px;height:275px;background:#FFFFFF;" version="1.1" viewBox="0 0 369 275" width="369px" zoomAndPan="magnify"><defs/><g><!--class Prototype--><g id="elem_Prototype"><rect codeLine="5" fill="#F1F1F1" height="100.8281" id="Prototype" rx="2.5" ry="2.5" style="stroke:#181818;stroke-width:0.5;" width="113" x="127.5" y="7"/><ellipse cx="151.5" cy="23" fill="#B4A7E5" rx="11" ry="11" style="stroke:#181818;stroke-width:1.0;"/><path d="M152.4531,19.6406 L152.4531,26.2969 L154.1719,26.2969 Q154.7813,26.2969 155.0469,26.5313 Q155.3125,26.7656 155.3125,27.1563 Q155.3125,27.5313 155.0469,27.7656 Q154.7813,28 154.1719,28 L149.0313,28 Q148.4219,28 148.1563,27.7656 Q147.8906,27.5313 147.8906,27.1406 Q147.8906,26.7656 148.1563,26.5313 Q148.4219,26.2969 149.0313,26.2969 L150.75,26.2969 L150.75,19.6406 L149.0313,19.6406 Q148.4219,19.6406 148.1563,19.4063 Q147.8906,19.1719 147.8906,18.7813 Q147.8906,18.4063 148.1563,18.1719 Q148.4219,17.9375 149.0313,17.9375 L154.1719,17.9375 Q154.7813,17.9375 155.0469,18.1719 Q155.3125,18.4063 155.3125,18.7813 Q155.3125,19.1719 155.0469,19.4063 Q154.7813,19.6406 154.1719,19.6406 L152.4531,19.6406 Z " fill="#000000"/><text fill="#000000" font-family="sans-serif" font-size="14" font-style="italic" lengthAdjust="spacing" textLength="61" x="167.5" y="28.7285">Prototype</text><line style="stroke:#181818;stroke-width:0.5;" x1="128.5" x2="239.5" y1="39" y2="39"/><text fill="#000000" font-family="sans-serif" font-size="14" lengthAdjust="spacing" textLength="93" x="133.5" y="57.5332">classAttribute1</text><text fill="#000000" font-family="sans-serif" font-size="14" lengthAdjust="spacing" textLength="93" x="133.5" y="75.1426">classAttribute2</text><line style="stroke:#181818;stroke-width:0.5;" x1="128.5" x2="239.5" y1="82.2188" y2="82.2188"/><text fill="#000000" font-family="sans-serif" font-size="14" lengthAdjust="spacing" textLength="101" x="133.5" y="100.752">clone(): Product</text></g><!--class ConcretePrototypeA--><g id="elem_ConcretePrototypeA"><rect codeLine="11" fill="#F1F1F1" height="100.8281" id="ConcretePrototypeA" rx="2.5" ry="2.5" style="stroke:#181818;stroke-width:0.5;" width="160" x="7" y="168"/><ellipse cx="22" cy="184" fill="#ADD1B2" rx="11" ry="11" style="stroke:#181818;stroke-width:1.0;"/><path d="M24.7656,179.875 Q24.9219,179.6563 25.1094,179.5469 Q25.2969,179.4375 25.5156,179.4375 Q25.8906,179.4375 26.125,179.7031 Q26.3594,179.9531 26.3594,180.5625 L26.3594,182.0156 Q26.3594,182.625 26.125,182.8906 Q25.8906,183.1563 25.5156,183.1563 Q25.1719,183.1563 24.9688,182.9531 Q24.7656,182.7656 24.6563,182.25 Q24.6094,181.8906 24.4219,181.7031 Q24.0938,181.3281 23.4844,181.1094 Q22.875,180.8906 22.25,180.8906 Q21.4844,180.8906 20.8438,181.2188 Q20.2188,181.5469 19.7188,182.2969 Q19.2344,183.0469 19.2344,184.0781 L19.2344,185.1719 Q19.2344,186.4063 20.125,187.2344 Q21.0156,188.0469 22.6094,188.0469 Q23.5469,188.0469 24.2031,187.7969 Q24.5938,187.6406 25.0156,187.2031 Q25.2813,186.9375 25.4219,186.8594 Q25.5781,186.7813 25.7813,186.7813 Q26.1094,186.7813 26.3594,187.0469 Q26.625,187.2969 26.625,187.6406 Q26.625,187.9844 26.2813,188.3906 Q25.7813,188.9688 24.9844,189.2969 Q23.9063,189.75 22.6094,189.75 Q21.0938,189.75 19.8906,189.125 Q18.9063,188.625 18.2188,187.5625 Q17.5313,186.4844 17.5313,185.2031 L17.5313,184.0469 Q17.5313,182.7188 18.1406,181.5781 Q18.7656,180.4219 19.8594,179.8125 Q20.9531,179.1875 22.1875,179.1875 Q22.9219,179.1875 23.5625,179.3594 Q24.2188,179.5156 24.7656,179.875 Z " fill="#000000"/><text fill="#000000" font-family="sans-serif" font-size="14" lengthAdjust="spacing" textLength="128" x="36" y="189.7285">ConcretePrototypeA</text><line style="stroke:#181818;stroke-width:0.5;" x1="8" x2="166" y1="200" y2="200"/><text fill="#000000" font-family="sans-serif" font-size="14" lengthAdjust="spacing" textLength="93" x="13" y="218.5332">classAttribute3</text><text fill="#000000" font-family="sans-serif" font-size="14" lengthAdjust="spacing" textLength="93" x="13" y="236.1426">classAttribute4</text><line style="stroke:#181818;stroke-width:0.5;" x1="8" x2="166" y1="243.2188" y2="243.2188"/><text fill="#000000" font-family="sans-serif" font-size="14" lengthAdjust="spacing" textLength="101" x="13" y="261.752">clone(): Product</text></g><!--class ConcretePrototypeB--><g id="elem_ConcretePrototypeB"><rect codeLine="17" fill="#F1F1F1" height="100.8281" id="ConcretePrototypeB" rx="2.5" ry="2.5" style="stroke:#181818;stroke-width:0.5;" width="160" x="202" y="168"/><ellipse cx="217" cy="184" fill="#ADD1B2" rx="11" ry="11" style="stroke:#181818;stroke-width:1.0;"/><path d="M219.7656,179.875 Q219.9219,179.6563 220.1094,179.5469 Q220.2969,179.4375 220.5156,179.4375 Q220.8906,179.4375 221.125,179.7031 Q221.3594,179.9531 221.3594,180.5625 L221.3594,182.0156 Q221.3594,182.625 221.125,182.8906 Q220.8906,183.1563 220.5156,183.1563 Q220.1719,183.1563 219.9688,182.9531 Q219.7656,182.7656 219.6563,182.25 Q219.6094,181.8906 219.4219,181.7031 Q219.0938,181.3281 218.4844,181.1094 Q217.875,180.8906 217.25,180.8906 Q216.4844,180.8906 215.8438,181.2188 Q215.2188,181.5469 214.7188,182.2969 Q214.2344,183.0469 214.2344,184.0781 L214.2344,185.1719 Q214.2344,186.4063 215.125,187.2344 Q216.0156,188.0469 217.6094,188.0469 Q218.5469,188.0469 219.2031,187.7969 Q219.5938,187.6406 220.0156,187.2031 Q220.2813,186.9375 220.4219,186.8594 Q220.5781,186.7813 220.7813,186.7813 Q221.1094,186.7813 221.3594,187.0469 Q221.625,187.2969 221.625,187.6406 Q221.625,187.9844 221.2813,188.3906 Q220.7813,188.9688 219.9844,189.2969 Q218.9063,189.75 217.6094,189.75 Q216.0938,189.75 214.8906,189.125 Q213.9063,188.625 213.2188,187.5625 Q212.5313,186.4844 212.5313,185.2031 L212.5313,184.0469 Q212.5313,182.7188 213.1406,181.5781 Q213.7656,180.4219 214.8594,179.8125 Q215.9531,179.1875 217.1875,179.1875 Q217.9219,179.1875 218.5625,179.3594 Q219.2188,179.5156 219.7656,179.875 Z " fill="#000000"/><text fill="#000000" font-family="sans-serif" font-size="14" lengthAdjust="spacing" textLength="128" x="231" y="189.7285">ConcretePrototypeB</text><line style="stroke:#181818;stroke-width:0.5;" x1="203" x2="361" y1="200" y2="200"/><text fill="#000000" font-family="sans-serif" font-size="14" lengthAdjust="spacing" textLength="93" x="208" y="218.5332">classAttribute5</text><text fill="#000000" font-family="sans-serif" font-size="14" lengthAdjust="spacing" textLength="93" x="208" y="236.1426">classAttribute6</text><line style="stroke:#181818;stroke-width:0.5;" x1="203" x2="361" y1="243.2188" y2="243.2188"/><text fill="#000000" font-family="sans-serif" font-size="14" lengthAdjust="spacing" textLength="101" x="208" y="261.752">clone(): Product</text></g><!--reverse link Prototype to ConcretePrototypeA--><g id="link_Prototype_ConcretePrototypeA"><path codeLine="2" d="M142.94,125.8 C134.35,139.89 125.44,154.5 117.32,167.8 " fill="none" id="Prototype-backto-ConcretePrototypeA" style="stroke:#181818;stroke-width:1.0;"/><polygon fill="none" points="137.18,121.8,153.57,108.37,149.13,129.09,137.18,121.8" style="stroke:#181818;stroke-width:1.0;"/></g><!--reverse link Prototype to ConcretePrototypeB--><g id="link_Prototype_ConcretePrototypeB"><path codeLine="3" d="M225.48,125.8 C234.16,139.89 243.17,154.5 251.37,167.8 " fill="none" id="Prototype-backto-ConcretePrototypeB" style="stroke:#181818;stroke-width:1.0;"/><polygon fill="none" points="219.27,129.07,214.74,108.37,231.19,121.73,219.27,129.07" style="stroke:#181818;stroke-width:1.0;"/></g><!--SRC=[2oZAByalgIn8LR2fqTLLSCxFIovABKaDW0axSWKGKE74nPMPLv9Qb9QOdAg0K5pDfQ2Gd9DONEnOKbAKcLHQacg88M845idFIzNGj09fJIbDBk6gvU82gyBY5Yo66cE8c91cg1CMGqqnHCnm60e0]--></g></svg>